<?xml version="1.0" encoding="UTF-8" standalone="no"?><!-- Generator: Gravit.io --><svg xmlns="http://www.w3.org/2000/svg" xmlns:xlink="http://www.w3.org/1999/xlink" style="isolation:isolate" viewBox="0 0 45 45" width="45pt" height="45pt"><defs><clipPath id="_clipPath_04qTJWEALkhBMCrh7GsO7PBWGai1e4un"><rect width="45" height="45"/></clipPath></defs><g clip-path="url(#_clipPath_04qTJWEALkhBMCrh7GsO7PBWGai1e4un)"><ellipse vector-effect="non-scaling-stroke" cx="22.5" cy="22.812499999999996" rx="21.5" ry="21.8125" fill="rgb(255,255,255)" style=":undefined;" stroke-width="1" stroke="rgb(11,121,191)" stroke-linejoin="round" stroke-linecap="butt" stroke-miterlimit="1.414"/><path d=" M 22.5 2 C 17.214 2 12.9 6.314 12.9 11.6 C 12.9 16.886 17.214 21.2 22.5 21.2 C 27.786 21.2 32.1 16.886 32.1 11.6 C 32.1 6.314 27.786 2 22.5 2 Z  M 22.5 21.2 C 13.671 21.218 6.518 28.371 6.5 37.2 L 9.7 37.2 C 9.7 32.624 12.1 28.662 15.687 26.4 L 22.5 34 L 29.313 26.4 C 33.038 28.726 35.301 32.808 35.3 37.2 L 38.5 37.2 C 38.5 28.387 31.313 21.2 22.5 21.2 Z  M 22.5 5.2 C 26.052 5.2 28.9 8.048 28.9 11.6 C 28.9 15.152 26.052 18 22.5 18 C 18.948 18 16.1 15.152 16.1 11.6 C 16.1 8.048 18.948 5.2 22.5 5.2 Z  M 22.5 24.4 C 23.812 24.4 25.05 24.65 26.25 25.024 L 22.5 29.2 L 18.75 25.024 C 19.961 24.626 21.225 24.415 22.5 24.4 Z " fill="rgb(11,121,191)"/></g></svg>