<?xml version="1.0" encoding="UTF-8" standalone="no"?><!-- Generator: Gravit.io --><svg xmlns="http://www.w3.org/2000/svg" xmlns:xlink="http://www.w3.org/1999/xlink" style="isolation:isolate" viewBox="0 0 45 45" width="45pt" height="45pt"><defs><clipPath id="_clipPath_IPjNaYyWCJZKupwrg0JXaKDo8OY4NCIg"><rect width="45" height="45"/></clipPath></defs><g clip-path="url(#_clipPath_IPjNaYyWCJZKupwrg0JXaKDo8OY4NCIg)"><path d=" M 28.94 0 C 28.387 0 28.022 0.366 28.022 0.918 L 28.022 12.857 L 29.859 12.857 L 29.859 0.918 C 29.859 0.366 29.493 0 28.94 0 Z  M 29.859 12.857 L 29.859 20.75 L 32.901 17.736 C 33.267 17.37 33.797 17.37 34.163 17.736 C 34.529 18.102 34.529 18.633 34.163 18.998 L 28.94 24.251 L 23.717 18.998 C 23.351 18.633 23.351 18.102 23.717 17.736 C 24.083 17.37 24.614 17.37 24.979 17.736 L 28.022 20.751 L 28.022 12.857 L 15.451 12.857 L 13.5 4.965 C 12.859 2.852 11.758 0.918 8.45 0.918 L 2.308 0.918 C 1.293 0.918 0.471 1.741 0.471 2.755 C 0.471 3.77 1.293 4.592 2.308 4.592 C 3.322 4.592 4.144 3.77 4.144 2.755 L 8.45 2.755 C 10.379 2.755 11.136 3.404 11.778 5.424 L 19.125 35.071 C 19.516 36.509 19.947 38.159 21.565 38.974 C 21.019 39.615 20.675 40.427 20.675 41.327 C 20.675 43.347 22.328 45 24.348 45 C 26.369 45 28.022 43.347 28.022 41.327 C 28.017 40.679 27.839 40.045 27.505 39.49 L 33.13 39.49 C 32.796 40.045 32.618 40.679 32.614 41.327 C 32.614 43.347 34.267 45 36.287 45 C 38.308 45 39.961 43.347 39.961 41.327 C 39.958 40.41 39.609 39.528 38.984 38.858 C 39.019 38.766 39.039 38.669 39.042 38.571 C 39.042 38.019 38.677 37.653 38.124 37.653 L 24.061 37.653 C 21.582 37.653 21.313 36.631 20.761 34.611 L 20.216 32.143 L 37.034 32.143 C 37.399 32.143 37.744 31.874 37.836 31.597 L 44.467 14.148 C 44.559 13.873 44.563 13.499 44.381 13.316 C 44.197 13.041 43.911 12.857 43.634 12.857 L 29.859 12.857 Z  M 24.176 39.49 L 24.348 39.49 C 25.36 39.49 26.185 40.314 26.185 41.327 C 26.185 42.339 25.36 43.163 24.348 43.163 C 23.336 43.163 22.512 42.339 22.512 41.327 C 22.512 40.376 23.246 39.576 24.177 39.49 L 24.176 39.49 Z  M 36.287 39.49 C 37.299 39.49 38.124 40.314 38.124 41.327 C 38.124 42.339 37.299 43.163 36.287 43.163 C 35.275 43.163 34.45 42.339 34.45 41.327 C 34.45 40.314 35.275 39.49 36.287 39.49 Z " fill="rgb(11,121,191)"/></g></svg>