<?xml version="1.0" encoding="UTF-8" standalone="no"?><!-- Generator: Gravit.io --><svg xmlns="http://www.w3.org/2000/svg" xmlns:xlink="http://www.w3.org/1999/xlink" style="isolation:isolate" viewBox="0 0 45 45" width="45pt" height="45pt"><defs><clipPath id="_clipPath_8NeGM7tuaj5uUPjM8Qas1FEB2PaF8chQ"><rect width="45" height="45"/></clipPath></defs><g clip-path="url(#_clipPath_8NeGM7tuaj5uUPjM8Qas1FEB2PaF8chQ)"><path d=" M 1.7 0 C 1.67 0.008 1.641 0.018 1.612 0.029 C 0.689 0.156 0.001 0.944 0 1.875 C 0 2.911 0.84 3.75 1.875 3.75 C 2.911 3.75 3.75 2.911 3.75 1.875 L 8.115 1.875 C 9.283 1.875 9.892 2.117 10.342 2.52 C 10.785 2.918 11.144 3.585 11.456 4.629 L 11.456 4.657 L 18.956 34.892 C 19.237 35.965 19.49 37.068 20.274 37.969 C 20.615 38.356 21.034 38.665 21.505 38.877 C 20.94 39.539 20.629 40.38 20.625 41.25 C 20.625 43.313 22.313 45 24.375 45 C 26.438 45 28.125 43.313 28.125 41.25 C 28.121 40.589 27.938 39.941 27.597 39.375 L 33.34 39.375 C 32.999 39.941 32.817 40.589 32.813 41.25 C 32.813 43.313 34.5 45 36.563 45 C 38.625 45 40.313 43.313 40.313 41.25 C 40.313 40.287 39.921 39.427 39.316 38.76 C 39.42 38.473 39.379 38.153 39.204 37.902 C 39.029 37.651 38.743 37.501 38.438 37.5 L 24.112 37.5 C 22.668 37.5 22.106 37.193 21.709 36.738 C 21.317 36.292 21.05 35.5 20.771 34.453 L 20.771 34.424 L 20.128 31.875 L 37.325 31.875 C 37.714 31.875 38.066 31.626 38.204 31.26 L 44.943 13.447 C 45.049 13.162 45.005 12.843 44.825 12.597 C 44.654 12.343 44.369 12.19 44.063 12.188 L 15.264 12.188 L 13.271 4.19 L 13.271 4.131 C 12.912 2.922 12.451 1.875 11.602 1.114 C 10.752 0.352 9.569 0 8.115 0 L 1.7 0 Z  M 30 20.625 L 33.75 20.625 C 34.268 20.625 34.688 21.045 34.688 21.563 C 34.688 22.08 34.268 22.5 33.75 22.5 L 30 22.5 L 28.125 22.5 L 24.375 22.5 C 23.86 22.5 23.438 22.078 23.438 21.563 C 23.438 21.047 23.86 20.625 24.375 20.625 L 27.875 20.625 Q 28.125 20.625 28.375 20.625 L 30 20.625 Z  M 24.375 39.375 C 25.422 39.375 26.25 40.203 26.25 41.25 C 26.25 42.297 25.422 43.125 24.375 43.125 C 23.328 43.125 22.5 42.297 22.5 41.25 C 22.5 40.203 23.328 39.375 24.375 39.375 Z  M 36.563 39.375 C 37.61 39.375 38.438 40.203 38.438 41.25 C 38.438 42.297 37.61 43.125 36.563 43.125 C 35.516 43.125 34.688 42.297 34.688 41.25 C 34.688 40.203 35.516 39.375 36.563 39.375 Z " fill="rgb(11,121,191)"/></g></svg>