<?xml version="1.0" encoding="UTF-8" standalone="no"?><!-- Generator: Gravit.io --><svg xmlns="http://www.w3.org/2000/svg" xmlns:xlink="http://www.w3.org/1999/xlink" style="isolation:isolate" viewBox="0 0 45 45" width="45pt" height="45pt"><defs><clipPath id="_clipPath_GsJoLh1FWa8cgEO6mBPoCksCNX9lOgMo"><rect width="45" height="45"/></clipPath></defs><g clip-path="url(#_clipPath_GsJoLh1FWa8cgEO6mBPoCksCNX9lOgMo)"><circle vector-effect="non-scaling-stroke" cx="22.500000000000004" cy="22.500000000000004" r="22.5" fill="rgb(11,121,191)"/><path d=" M 10.763 22.638 L 22.59 36.104 L 34.206 22.638 C 34.206 22.638 34.206 22.638 34.206 22.637 C 36.511 19.263 36.243 14.474 33.578 11.456 C 30.915 8.438 26.686 8.13 23.703 10.739 C 22.984 11.368 22.589 11.715 22.589 11.715 C 22.589 11.715 22.19 11.361 21.466 10.719 C 18.472 8.065 14.205 8.337 11.493 11.355 C 8.781 14.372 8.467 19.199 10.759 22.634 C 10.76 22.637 10.761 22.638 10.761 22.638 L 10.763 22.638 Z " fill-rule="evenodd" fill="rgb(255,255,255)"/></g></svg>